<svg width="24" height="24" viewBox="0 0 24 24" fill="none" xmlns="http://www.w3.org/2000/svg">
  <path d="M11 4H4C3.45 4 3 4.45 3 5V20C3 20.55 3.45 21 4 21H19C19.55 21 20 20.55 20 20V13" stroke="currentColor" stroke-width="2" stroke-linecap="round" stroke-linejoin="round"/>
  <path d="M18.5 2.5C18.89 2.11 19.44 1.88 20.02 1.88C20.6 1.88 21.15 2.11 21.54 2.5C21.93 2.89 22.16 3.44 22.16 4.02C22.16 4.6 21.93 5.15 21.54 5.54L12 15L8 16L9 12L18.5 2.5Z" stroke="currentColor" stroke-width="2" stroke-linecap="round" stroke-linejoin="round"/>
</svg>