<svg width="24" height="24" viewBox="0 0 24 24" fill="none" xmlns="http://www.w3.org/2000/svg">
  <defs>
    <linearGradient id="proposalGradient" x1="0%" y1="0%" x2="100%" y2="100%">
      <stop offset="0%" style="stop-color:#8B5CF6;stop-opacity:1" />
      <stop offset="100%" style="stop-color:#7C3AED;stop-opacity:1" />
    </linearGradient>
  </defs>
  <!-- Document -->
  <path d="M6 2 L18 2 Q20 2 20 4 L20 20 Q20 22 18 22 L6 22 Q4 22 4 20 L4 4 Q4 2 6 2 Z" fill="white" stroke="url(#proposalGradient)" stroke-width="2"/>
  <!-- Header line -->
  <rect x="7" y="6" width="10" height="1.5" rx="0.75" fill="url(#proposalGradient)"/>
  <!-- Content lines -->
  <rect x="7" y="9" width="8" height="1" rx="0.5" fill="#9CA3AF"/>
  <rect x="7" y="11" width="9" height="1" rx="0.5" fill="#9CA3AF"/>
  <rect x="7" y="13" width="7" height="1" rx="0.5" fill="#9CA3AF"/>
  <!-- Lightbulb icon (idea) -->
  <circle cx="15" cy="16" r="2" fill="#FCD34D" stroke="#F59E0B" stroke-width="0.5"/>
  <path d="M14 18 L16 18" stroke="#F59E0B" stroke-width="1" stroke-linecap="round"/>
  <path d="M14.5 19 L15.5 19" stroke="#F59E0B" stroke-width="1" stroke-linecap="round"/>
</svg>