<svg width="24" height="24" viewBox="0 0 24 24" fill="none" xmlns="http://www.w3.org/2000/svg">
  <path d="M4.5 16.5C4.5 16.5 5.5 17.5 8 15L9 14L10 15L11 14L12 15L13 14L14 15L15 14L16 15C18.5 17.5 19.5 16.5 19.5 16.5L12 9L4.5 16.5Z" stroke="currentColor" stroke-width="2" stroke-linecap="round" stroke-linejoin="round"/>
  <path d="M12 9L15.5 5.5C16.5 4.5 18 3 20 3C21 3 21 4 21 4C21 6 19.5 7.5 18.5 8.5L15 12" stroke="currentColor" stroke-width="2" stroke-linecap="round" stroke-linejoin="round"/>
  <path d="M7 14L3 18" stroke="currentColor" stroke-width="2" stroke-linecap="round" stroke-linejoin="round"/>
  <circle cx="8.5" cy="8.5" r="1.5" fill="currentColor"/>
</svg>