<svg width="24" height="24" viewBox="0 0 24 24" fill="none" xmlns="http://www.w3.org/2000/svg">
  <circle cx="12" cy="12" r="3" stroke="currentColor" stroke-width="2"/>
  <path d="M19.4 15C19.2 15.3 19.1 15.7 19.1 16.1C19.1 16.5 19.2 16.9 19.4 17.2L20.4 18.9C20.6 19.3 20.5 19.8 20.1 20.1L18.1 21.9C17.8 22.2 17.3 22.2 16.9 22L15.2 21C14.9 21.2 14.5 21.3 14.1 21.3C13.7 21.3 13.3 21.2 13 21L11.3 22C10.9 22.2 10.4 22.1 10.1 21.7L8.3 19.7C8 19.4 8 18.9 8.3 18.5L9.3 16.8C9.1 16.5 9 16.1 9 15.7C9 15.3 9.1 14.9 9.3 14.6L8.3 12.9C8.1 12.5 8.2 12 8.6 11.7L10.6 9.9C10.9 9.6 11.4 9.6 11.8 9.9L13.5 10.9C13.8 10.7 14.2 10.6 14.6 10.6C15 10.6 15.4 10.7 15.7 10.9L17.4 9.9C17.8 9.7 18.3 9.8 18.6 10.2L20.4 12.2C20.7 12.5 20.7 13 20.4 13.4L19.4 15Z" stroke="currentColor" stroke-width="2"/>
</svg>