<svg width="64" height="64" viewBox="0 0 64 64" fill="none" xmlns="http://www.w3.org/2000/svg">
  <!-- Background circle with gradient -->
  <defs>
    <linearGradient id="bgGradient" x1="0%" y1="0%" x2="100%" y2="100%">
      <stop offset="0%" style="stop-color:#3B82F6;stop-opacity:1" />
      <stop offset="100%" style="stop-color:#8B5CF6;stop-opacity:1" />
    </linearGradient>
    <linearGradient id="iconGradient" x1="0%" y1="0%" x2="100%" y2="100%">
      <stop offset="0%" style="stop-color:#FFFFFF;stop-opacity:1" />
      <stop offset="100%" style="stop-color:#E5E7EB;stop-opacity:1" />
    </linearGradient>
  </defs>
  
  <!-- Main circle -->
  <circle cx="32" cy="32" r="30" fill="url(#bgGradient)" stroke="#1E40AF" stroke-width="2"/>
  
  <!-- Assembly/Parliament building icon -->
  <g fill="url(#iconGradient)">
    <!-- Base platform -->
    <rect x="12" y="48" width="40" height="4" rx="2"/>
    
    <!-- Columns -->
    <rect x="16" y="28" width="3" height="20" rx="1.5"/>
    <rect x="22" y="28" width="3" height="20" rx="1.5"/>
    <rect x="28" y="28" width="3" height="20" rx="1.5"/>
    <rect x="34" y="28" width="3" height="20" rx="1.5"/>
    <rect x="40" y="28" width="3" height="20" rx="1.5"/>
    <rect x="46" y="28" width="3" height="20" rx="1.5"/>
    
    <!-- Top architrave -->
    <rect x="14" y="26" width="36" height="4" rx="2"/>
    
    <!-- Pediment (triangular top) -->
    <path d="M32 16 L18 26 L46 26 Z"/>
    
    <!-- Central dome -->
    <circle cx="32" cy="20" r="6" fill="url(#iconGradient)" opacity="0.8"/>
    <path d="M26 20 Q32 14 38 20" stroke="url(#iconGradient)" stroke-width="1" fill="none"/>
  </g>
  
  <!-- Voting/Democracy symbols -->
  <g fill="#FCD34D" opacity="0.9">
    <!-- Stars representing votes -->
    <path d="M20 12 L21 15 L24 15 L21.5 17 L22.5 20 L20 18 L17.5 20 L18.5 17 L16 15 L19 15 Z" transform="scale(0.6)"/>
    <path d="M44 12 L45 15 L48 15 L45.5 17 L46.5 20 L44 18 L41.5 20 L42.5 17 L40 15 L43 15 Z" transform="scale(0.6)"/>
  </g>
</svg>